<svg xmlns="http://www.w3.org/2000/svg" width="24" height="24" viewBox="0 0 24 24"><path fill-rule="evenodd" d="M21 7.386c.004-1.603-.464-2.642-1.1-3.278S18.223 3 16.617 3H7.394C5.79 3 4.747 3.47 4.11 4.109 3.47 4.746 3 5.787 3 7.39v9.207c0 1.61.471 2.654 1.11 3.293.638.639 1.679 1.11 3.284 1.11h9.212c1.605 0 2.647-.47 3.285-1.109C20.53 19.254 21 18.213 21 16.61zM7.394 1h9.223C20.623 1 23.01 3.387 23 7.391v9.218C23 20.613 20.612 23 16.606 23H7.394C3.388 23 1 20.613 1 16.598V7.391C1 3.387 3.388 1 7.394 1"/><path fill-rule="evenodd" d="M12 15a3 3 0 1 0 0-6 3 3 0 0 0 0 6m0 2a5 5 0 1 0 0-10 5 5 0 0 0 0 10m5.5-10a.5.5 0 1 0 0-1 .5.5 0 0 0 0 1m0 2a2.5 2.5 0 1 0 0-5 2.5 2.5 0 0 0 0 5"/></svg>