<svg xmlns="http://www.w3.org/2000/svg" width="24" height="24" viewBox="0 0 24 24"><path d="M16.617 1H7.394C3.388 1 1 3.387 1 7.391v9.207C1 20.613 3.388 23 7.394 23h9.212C20.612 23 23 20.613 23 16.609V7.391C23.011 3.387 20.623 1 16.617 1m-4.612 15.268A4.273 4.273 0 0 1 7.736 12a4.273 4.273 0 0 1 4.27-4.268A4.273 4.273 0 0 1 16.276 12a4.273 4.273 0 0 1-4.27 4.268m6.516-9.9a1.3 1.3 0 0 1-.231.363 1.3 1.3 0 0 1-.364.231 1.09 1.09 0 0 1-1.2-.231 1.3 1.3 0 0 1-.23-.363 1.1 1.1 0 0 1-.088-.418c0-.143.033-.286.088-.418a1.2 1.2 0 0 1 .23-.363 1.1 1.1 0 0 1 .991-.297.7.7 0 0 1 .21.066.8.8 0 0 1 .198.099c.055.033.11.088.165.132.099.11.176.22.23.363.056.132.089.275.089.418s-.033.286-.088.418"/></svg>