<svg xmlns="http://www.w3.org/2000/svg" width="24" height="24" viewBox="0 0 24 24"><path d="M12 2.833C6.94 2.833 2.833 6.94 2.833 12S6.94 21.167 12 21.167 21.167 17.06 21.167 12 17.06 2.833 12 2.833m0 16.5c-4.043 0-7.333-3.29-7.333-7.333S7.957 4.667 12 4.667s7.333 3.29 7.333 7.333-3.29 7.333-7.333 7.333m.284-8.121c-1.622-.413-2.145-.862-2.145-1.531 0-.77.724-1.311 1.925-1.311 1.265 0 1.742.605 1.778 1.503h1.568c-.046-1.228-.797-2.356-2.283-2.722V5.583h-2.135v1.55c-1.385.293-2.494 1.191-2.494 2.575 0 1.641 1.366 2.466 3.355 2.943 1.788.422 2.145 1.054 2.145 1.714 0 .486-.357 1.274-1.925 1.274-1.466 0-2.044-.66-2.126-1.503H8.37c.092 1.558 1.247 2.438 2.622 2.722v1.559h2.145v-1.531c1.393-.266 2.493-1.063 2.502-2.54-.009-2.016-1.741-2.713-3.355-3.134"/></svg>