<svg xmlns="http://www.w3.org/2000/svg" width="24" height="24" viewBox="0 0 24 24"><path stroke="#F2F2F3" stroke-width="2" d="m16.58 15.509.025.03.028.028.24.24c.598.594 1.145 1.138 1.55 1.739.425.629.631 1.232.547 1.9-.23.742-.733 1.363-1.542 1.552a1 1 0 0 1-.136.003 5 5 0 0 1-.4-.026 33 33 0 0 1-1.021-.123l-.236-.031c-.986-.128-2.245-.281-3.555-.281h-.18c-1.311 0-2.571.156-3.556.285l-.208.027c-.41.054-.756.1-1.046.127a5 5 0 0 1-.397.025A1 1 0 0 1 6.561 21c-.817-.187-1.32-.803-1.55-1.55-.08-.663.126-1.265.553-1.894.407-.6.954-1.144 1.55-1.738l.243-.24.026-.027.024-.028c.567-.656 1.074-1.254 1.593-1.866l.887-1.044c.439-.503.875-.875 1.317-1.027l.01-.003.008-.003q.09-.033.167-.046l.01-.002c.15-.029.324-.032.601-.032.27 0 .456.002.611.026q.074.014.157.044l.009.003.009.003c.447.153.894.53 1.313 1.022l.004.005c.562.651 1.06 1.238 1.574 1.845zM6 9.5a1.5 1.5 0 1 1-3 0 1.5 1.5 0 0 1 3 0Zm4.5-4a1.5 1.5 0 1 1-3 0 1.5 1.5 0 0 1 3 0Zm6 0a1.5 1.5 0 1 1-3 0 1.5 1.5 0 0 1 3 0Zm4.5 4a1.5 1.5 0 1 1-3 0 1.5 1.5 0 0 1 3 0Z"/></svg>