<svg xmlns="http://www.w3.org/2000/svg" width="24" height="24" viewBox="0 0 24 24"><path d="M12 8a4.17 4.17 0 0 1 2.907 1.172A3.95 3.95 0 0 1 16.111 12c0 1.06-.433 2.078-1.204 2.828A4.17 4.17 0 0 1 12 16a4.17 4.17 0 0 1-2.907-1.172A3.95 3.95 0 0 1 7.889 12c0-1.06.433-2.078 1.204-2.828A4.17 4.17 0 0 1 12 8m0 2c-.545 0-1.068.21-1.454.586A1.97 1.97 0 0 0 9.944 12c0 .53.217 1.04.602 1.414.386.375.909.586 1.454.586s1.068-.21 1.454-.586c.385-.375.602-.884.602-1.414s-.217-1.04-.602-1.414A2.1 2.1 0 0 0 12 10M9.944 22a.516.516 0 0 1-.514-.42l-.38-2.65c-.647-.25-1.202-.59-1.737-.99l-2.56 1.01a.524.524 0 0 1-.626-.22L2.07 15.27a.484.484 0 0 1 .124-.64l2.168-1.66L4.29 12l.072-1-2.168-1.63a.484.484 0 0 1-.124-.64l2.056-3.46c.123-.22.4-.31.627-.22l2.56 1c.534-.39 1.089-.73 1.736-.98l.38-2.65A.516.516 0 0 1 9.944 2h4.112c.257 0 .472.18.514.42l.38 2.65c.647.25 1.202.59 1.737.98l2.56-1a.51.51 0 0 1 .626.22l2.056 3.46c.133.22.072.49-.124.64L19.637 11l.072 1-.072 1 2.168 1.63c.196.15.257.42.124.64l-2.056 3.46c-.123.22-.4.31-.627.22l-2.56-1c-.534.39-1.089.73-1.736.98l-.38 2.65a.516.516 0 0 1-.514.42zM11.23 4l-.38 2.61a5.68 5.68 0 0 0-3.114 1.78L5.258 7.35l-.771 1.3 2.168 1.55a5.4 5.4 0 0 0 0 3.6l-2.179 1.56.771 1.3 2.498-1.04a5.63 5.63 0 0 0 3.094 1.76l.38 2.62h1.562l.38-2.61a5.7 5.7 0 0 0 3.094-1.77l2.498 1.04.77-1.3-2.178-1.55a5.44 5.44 0 0 0 0-3.61l2.168-1.55-.77-1.3-2.477 1.04a5.6 5.6 0 0 0-3.115-1.77L12.771 4z"/></svg>