<svg xmlns="http://www.w3.org/2000/svg" width="24" height="24" viewBox="0 0 24 24"><path d="M19.64 12.98c.042-.32.073-.64.073-.98s-.031-.66-.072-.98l2.169-1.65a.495.495 0 0 0 .123-.64l-2.056-3.46c-.123-.22-.4-.3-.627-.22l-2.56 1c-.534-.4-1.11-.73-1.737-.98l-.39-2.65a.5.5 0 0 0-.505-.42H9.946a.5.5 0 0 0-.504.42l-.39 2.65a8 8 0 0 0-1.738.98l-2.56-1a.51.51 0 0 0-.627.22L2.071 8.73a.484.484 0 0 0 .124.64l2.169 1.65c-.041.32-.072.65-.072.98s.03.66.072.98l-2.17 1.65a.495.495 0 0 0-.123.64l2.056 3.46c.124.22.401.3.628.22l2.56-1c.534.4 1.11.73 1.737.98l.39 2.65c.031.24.247.42.504.42h4.112c.257 0 .473-.18.504-.42l.39-2.65a8 8 0 0 0 1.738-.98l2.56 1c.236.09.504 0 .627-.22l2.056-3.46a.495.495 0 0 0-.123-.64zm-7.638 2.52c-1.984 0-3.598-1.57-3.598-3.5s1.614-3.5 3.598-3.5S15.6 10.07 15.6 12s-1.614 3.5-3.598 3.5"/></svg>