<svg xmlns="http://www.w3.org/2000/svg" width="24" height="24" viewBox="0 0 24 24"><path d="M8.292 20.364c7.545 0 11.673-6.297 11.673-11.755q0-.268-.012-.535A8.4 8.4 0 0 0 22 5.935a8 8 0 0 1-2.355.65 4.15 4.15 0 0 0 1.804-2.286c-.805.48-1.686.82-2.604 1.003a4.08 4.08 0 0 0-4.93-.813 4.13 4.13 0 0 0-1.803 1.938 4.16 4.16 0 0 0-.262 2.642 11.6 11.6 0 0 1-4.683-1.252 11.7 11.7 0 0 1-3.773-3.062 4.16 4.16 0 0 0-.448 3.01 4.14 4.14 0 0 0 1.718 2.504 4.1 4.1 0 0 1-1.86-.515v.05c0 .955.328 1.88.928 2.619a4.1 4.1 0 0 0 2.365 1.433 4.05 4.05 0 0 1-1.851.071c.262.82.772 1.539 1.459 2.053a4.1 4.1 0 0 0 2.372.818A8.2 8.2 0 0 1 2 18.508a11.6 11.6 0 0 0 6.292 1.856"/></svg>