<svg xmlns="http://www.w3.org/2000/svg" width="24" height="24" viewBox="0 0 24 24"><path d="M6.81 21.483c1.598.87 3.397 1.33 5.234 1.33C18.078 22.814 23 17.927 23 11.908c0-2.91-1.137-5.659-3.21-7.71A10.9 10.9 0 0 0 12.043 1C6.01 1 1.087 5.888 1.087 11.907c0 1.927.5 3.793 1.462 5.447L1 23zm5.234-18.655c2.436 0 4.722.945 6.434 2.662a8.98 8.98 0 0 1 2.66 6.417c0 5-4.085 9.066-9.107 9.066a9.05 9.05 0 0 1-4.635-1.269l-.337-.199-3.448.896.924-3.346-.212-.348a9 9 0 0 1-1.387-4.825c0-4.987 4.086-9.054 9.108-9.054m.225 13.58c.65.287 1.161.448 1.561.573.65.211 1.25.174 1.724.112.525-.075 1.624-.66 1.85-1.294.224-.634.224-1.181.162-1.293-.063-.112-.25-.187-.525-.323-.275-.137-1.624-.796-1.874-.883-.25-.088-.437-.137-.612.136-.188.274-.712.883-.862 1.07-.163.187-.325.199-.587.062-.275-.137-1.162-.423-2.2-1.355-.811-.722-1.36-1.617-1.523-1.89-.163-.274-.013-.424.125-.56.125-.125.275-.324.412-.473.137-.162.187-.274.275-.46a.48.48 0 0 0-.025-.473c-.063-.137-.612-1.48-.85-2.027-.225-.535-.45-.46-.612-.472-.162-.013-.337-.013-.525-.013a.98.98 0 0 0-.724.336c-.25.273-.962.933-.962 2.276s.987 2.636 1.112 2.823c.125.199 1.911 2.947 4.66 4.129"/></svg>