<svg width="123" height="38" viewBox="0 0 123 38" fill="none" xmlns="http://www.w3.org/2000/svg">
<g id="rarui">
<path d="M98.6176 28.4629C94.4502 28.4629 91.2017 27.3101 88.8721 25.0044C86.5425 22.6988 85.3777 19.4656 85.3777 15.3048V0H94.5408V14.7343C94.5408 16.8544 94.9161 18.365 95.6667 19.2661C96.4174 20.1406 97.4269 20.5779 98.6952 20.5779C99.9894 20.5779 100.999 20.1406 101.724 19.2661C102.474 18.365 102.85 16.8544 102.85 14.7343V0H111.857V15.3048C111.857 19.4656 110.693 22.6988 108.363 25.0044C106.033 27.3101 102.785 28.4629 98.6176 28.4629Z" fill="#181A1B"/>
<path d="M113.837 28.6552V0H123V28.6552H113.837Z" fill="#181A1B"/>
<path d="M22.2447 21.039C25.8789 19.1854 28.1356 16.0033 28.1356 11.4V11.3073C28.1356 8.06344 27.1978 5.71547 25.41 3.83092C23.3291 1.60654 19.9294 0.216293 14.6247 0.216293H0V28.7935H9.99401V22.7691H12.1335L21.6 38H33.0301L22.2447 21.039ZM18.1709 12.1724C18.1709 14.1187 16.7055 15.2309 14.3316 15.2309H9.99401V9.05206H14.3609C16.6762 9.05206 18.1709 10.0407 18.1709 12.0797V12.1724Z" fill="#181A1B"/>
<path fill-rule="evenodd" clip-rule="evenodd" d="M83.8599 10.8833C83.8599 7.80621 82.5605 5.4065 81.0365 3.83089C78.9263 1.6065 75.5559 0.21626 70.2512 0.21626H55.6265V25.5805L45.4859 0H35.5505L26.2306 23.4797L29.601 28.7935H65.6205V22.7691H67.76L71.5407 28.7935H82.8829L77.8419 21.039C79.8935 19.9886 81.4761 18.5366 82.5019 16.652C82.5019 16.652 83.8599 15.2425 83.8599 10.8833ZM40.445 12.4195L37.3676 21.0081H43.493L40.445 12.4195ZM69.9581 15.2309C72.332 15.2309 73.7974 14.1187 73.7974 12.1723H73.8267V12.0797C73.8267 10.0406 72.332 9.05202 70.0167 9.05202H65.6498V15.2309H69.9581Z" fill="#181A1B"/>
</g>
</svg>
